<?xml version="1.0" encoding="UTF-8"?>
<svg id="Layer_1" data-name="Layer 1" xmlns="http://www.w3.org/2000/svg" width="1412.28" height="1308" xmlns:xlink="http://www.w3.org/1999/xlink" viewBox="0 0 1412.28 1308">
  <defs>
    <style>
      .cls-1 {
        filter: url(#drop-shadow-4);
      }

      .cls-1, .cls-2, .cls-3 {
        fill: #60b457;
      }

      .cls-2 {
        filter: url(#drop-shadow-7);
      }

      .cls-4 {
        filter: url(#drop-shadow-8);
      }

      .cls-4, .cls-5, .cls-6 {
        fill: #ea513b;
      }

      .cls-7 {
        filter: url(#drop-shadow-3);
      }

      .cls-7, .cls-8, .cls-9 {
        fill: #65a8dd;
      }

      .cls-5 {
        filter: url(#drop-shadow-6);
      }

      .cls-8 {
        filter: url(#drop-shadow-9);
      }

      .cls-3 {
        filter: url(#drop-shadow-2);
      }

      .cls-9 {
        filter: url(#drop-shadow-5);
      }

      .cls-6 {
        filter: url(#drop-shadow-1);
      }
    </style>
    <filter id="drop-shadow-1" filterUnits="userSpaceOnUse">
      <feOffset dx="0" dy="10"/>
      <feGaussianBlur result="blur" stdDeviation="5"/>
      <feFlood flood-color="#000" flood-opacity=".35"/>
      <feComposite in2="blur" operator="in"/>
      <feComposite in="SourceGraphic"/>
    </filter>
    <filter id="drop-shadow-2" filterUnits="userSpaceOnUse">
      <feOffset dx="0" dy="10"/>
      <feGaussianBlur result="blur-2" stdDeviation="5"/>
      <feFlood flood-color="#000" flood-opacity=".35"/>
      <feComposite in2="blur-2" operator="in"/>
      <feComposite in="SourceGraphic"/>
    </filter>
    <filter id="drop-shadow-3" filterUnits="userSpaceOnUse">
      <feOffset dx="0" dy="10"/>
      <feGaussianBlur result="blur-3" stdDeviation="5"/>
      <feFlood flood-color="#000" flood-opacity=".35"/>
      <feComposite in2="blur-3" operator="in"/>
      <feComposite in="SourceGraphic"/>
    </filter>
    <filter id="drop-shadow-4" filterUnits="userSpaceOnUse">
      <feOffset dx="0" dy="-4"/>
      <feGaussianBlur result="blur-4" stdDeviation="5"/>
      <feFlood flood-color="#000" flood-opacity=".35"/>
      <feComposite in2="blur-4" operator="in"/>
      <feComposite in="SourceGraphic"/>
    </filter>
    <filter id="drop-shadow-5" filterUnits="userSpaceOnUse">
      <feOffset dx="0" dy="10"/>
      <feGaussianBlur result="blur-5" stdDeviation="5"/>
      <feFlood flood-color="#000" flood-opacity=".35"/>
      <feComposite in2="blur-5" operator="in"/>
      <feComposite in="SourceGraphic"/>
    </filter>
    <filter id="drop-shadow-6" filterUnits="userSpaceOnUse">
      <feOffset dx="0" dy="0"/>
      <feGaussianBlur result="blur-6" stdDeviation="5"/>
      <feFlood flood-color="#000" flood-opacity=".35"/>
      <feComposite in2="blur-6" operator="in"/>
      <feComposite in="SourceGraphic"/>
    </filter>
    <filter id="drop-shadow-7" filterUnits="userSpaceOnUse">
      <feOffset dx="0" dy="10"/>
      <feGaussianBlur result="blur-7" stdDeviation="5"/>
      <feFlood flood-color="#000" flood-opacity=".35"/>
      <feComposite in2="blur-7" operator="in"/>
      <feComposite in="SourceGraphic"/>
    </filter>
    <filter id="drop-shadow-8" filterUnits="userSpaceOnUse">
      <feOffset dx="0" dy="10"/>
      <feGaussianBlur result="blur-8" stdDeviation="5"/>
      <feFlood flood-color="#000" flood-opacity=".35"/>
      <feComposite in2="blur-8" operator="in"/>
      <feComposite in="SourceGraphic"/>
    </filter>
    <filter id="drop-shadow-9" filterUnits="userSpaceOnUse">
      <feOffset dx="0" dy="-2"/>
      <feGaussianBlur result="blur-9" stdDeviation="5"/>
      <feFlood flood-color="#000" flood-opacity=".35"/>
      <feComposite in2="blur-9" operator="in"/>
      <feComposite in="SourceGraphic"/>
    </filter>
  </defs>
  <path class="cls-6" d="m1180.97,133.5c30.8-32.8,20.5-90,11.5-114.5h204v114.5c-24.83-17.33-71.8-33.8-61,39,13.5,91-106.5,110-128,66s-126.5-21-153-23.5-25.5-43.5,0-63,88,22.5,126.5-18.5Z"/>
  <path class="cls-3" d="m694.93,130.5c-18.8-40.8,13.78-91.33,32.41-111.5h323.73c-29.58,51.67-99.26,153-152.75,119-66.85-42.5-51.46,25-116.69,79.5s-63.21-36-86.71-87h.01Z"/>
  <path class="cls-7" d="m396.9,153.27c26.9-62.63-11.21-115.6-33.62-134.27h165.68c-41.42,0-21.93,46.02,0,134.27,21.93,88.24-49.7,97.73-75.04,97.73s-90.64-19.45-57.01-97.73h0Z"/>
  <path class="cls-1" d="m423.4,657.92c-24.24,51.48,35.69,69.23,8.38,141.58-39,103.32-262,79-347.5,61V19h100.12c48.33,0,139.51,92.51,88.78,170.06-52.28,79.91-102.07,183.45,44.88,273.36,104.41,63.88,147.12,111.83,112.32,182.23"/>
  <path class="cls-9" d="m84.28,1283v-298c36.35-15.17,116.83-36.4,147.96,0,38.91,45.5-37.2,93-38.91,167s81.25,64.5,134.7,0c53.45-64.5,155.65-7.5,188.15,40,26,38-35.64,76.5-69.7,91H84.28Z"/>
  <path class="cls-5" d="m1060.27,656.71c-17.36,20.74-41.25,59.98-27.45,88.05v.02c18.99,38.63,33.99,90.93-15.49,109.78-49.49,18.85-203.94,40.99-259.92-55.6-34.13-58.9-56.98-105.08-123.96-54.19-42.58,32.35-96.46,32.35-109.97,12.72-11.7-17.02-46.25-28.65,5.49-101l8.88-10.29c17.38-18.4,41.59-53.59,27.72-78.73h0c-19-34.43-33.99-81.03,15.49-97.82,49.49-16.79,203.94-36.52,259.92,49.53,34.13,52.48,56.98,93.61,123.96,48.28,42.57-28.81,96.46-28.82,109.96-11.33,11.68,15.12,46.09,25.47-5.1,89.49"/>
  <path class="cls-2" d="m650.71,1194.47c17.2,54.09-37.83,81.34-67.5,88.2h267c19-78.54-38-160.85-90-182.69s-131,26.88-109.5,94.49Z"/>
  <path class="cls-4" d="m1080.85,1238.1c-1.98,27.25-52.28,41.06-77.19,44.57h390.4v-94.18c-2.64-20.88-23.16-57.94-84.12-39.1-76.2,23.55-64.32-12.61-169.22-58.44s-187.53,19.76-187.53,58.44,130.13,54.66,127.66,88.72h0Z"/>
  <path class="cls-8" d="m1396.46,660.2v157.96c0,140.49-36.99,64.61-105.75,123.57s-110.97-41.02-86.31-71.27c24.66-30.25,38.41,21.54,78.72-52.3h0c29.46-53.96,37.44-129.9,30.64-158.1-2.18-10.83,1.68-19.98,1.68-19.98,11.24-31.25-19.35-82.52-53.47-101.57-38.5-21.5-43-85,0-135,34.4-40,104-28.33,134.5-17.5v253.41"/>
</svg>