<?xml version="1.0" encoding="UTF-8"?>
<svg id="Layer_1" data-name="Layer 1" xmlns="http://www.w3.org/2000/svg" width="1312.19" height="1264" viewBox="0 0 1312.19 1264">
  <defs>
    <style>
      .cls-1 {
        fill: #65a8dd;
      }

      .cls-2 {
        fill: #ea513b;
      }

      .cls-3 {
        fill: #60b457;
      }
    </style>
  </defs>
  <path class="cls-3" d="m0,632V0h100.12c48.33,0,139.51,92.51,88.78,170.06-52.28,79.91-102.07,183.45,44.88,273.36,107.52,65.78,149.61,114.67,109,188.58H0Z"/>
  <path class="cls-2" d="m481.29,548.47c15.2,27.54-15.33,67.16-32.49,83.53h532.33c57.49-68.84,21.5-79.34,9.5-94.87-13.5-17.49-67.39-17.48-109.96,11.33-66.98,45.33-89.83,4.2-123.96-48.28-55.98-86.05-210.43-66.32-259.92-49.53-49.48,16.79-34.49,63.39-15.49,97.81Z"/>
  <path class="cls-1" d="m1177.69,384.5c34.4-40,104-28.33,134.5-17.5v265h-87.5c25.5-28.5-8.5-91-47-112.5s-43-85,0-135Z"/>
  <path class="cls-2" d="m1096.69,114.5c30.8-32.8,20.5-90,11.5-114.5h204v114.5c-24.83-17.33-71.8-33.8-61,39,13.5,91-106.5,110-128,66s-126.5-21-153-23.5-25.5-43.5,0-63c25.5-19.5,88,22.5,126.5-18.5Z"/>
  <path class="cls-3" d="m610.65,111.5c-18.8-40.8,13.78-91.33,32.41-111.5h323.73c-29.58,51.67-99.26,153-152.75,119-66.85-42.5-51.46,25-116.69,79.5s-63.21-36-86.71-87Z"/>
  <path class="cls-1" d="m312.62,134.27c26.9-62.63-11.21-115.6-33.62-134.27h165.68c-41.42,0-21.93,46.02,0,134.27,21.93,88.24-49.7,97.73-75.04,97.73s-90.64-19.45-57.01-97.73Z"/>
  <path class="cls-3" d="m0,780.5v-148l342.78-.5c-33.28,56.96,33.22,73,4.72,148.5-39,103.32-262,79-347.5,61v-61Z"/>
  <path class="cls-1" d="m0,1264v-298c36.35-15.17,116.83-36.4,147.96,0,38.91,45.5-37.2,93-38.91,167s81.25,64.5,134.7,0c53.45-64.5,155.65-7.5,188.15,40,26,38-35.64,76.5-69.7,91H0Z"/>
  <path class="cls-2" d="m948.54,725.76c-15.2-30.91,15.33-75.39,32.49-93.76H448.7c-57.48,77.27-21.49,89.05-9.5,106.49,13.51,19.63,67.39,19.63,109.97-12.72,66.98-50.89,89.83-4.71,123.96,54.19,55.98,96.59,210.43,74.45,259.92,55.6,49.48-18.85,34.48-71.15,15.49-109.78Z"/>
  <path class="cls-3" d="m566.43,1175.47c17.2,54.09-37.83,81.34-67.5,88.2h267c19-78.54-38-160.85-90-182.69-52-21.84-131,26.88-109.5,94.49Z"/>
  <path class="cls-2" d="m996.57,1219.1c-1.98,27.25-52.28,41.06-77.19,44.57h390.4v-94.18c-2.64-20.88-23.16-57.94-84.12-39.1-76.2,23.55-64.32-12.61-169.22-58.44-104.9-45.83-187.53,19.76-187.53,58.44s130.13,54.66,127.66,88.72Z"/>
  <path class="cls-1" d="m1198.84,799.16c32.25-59.07,46.64-136.05,26.08-167.16h87.26v167.16c0,140.49-36.99,64.61-105.75,123.57s-110.97-41.02-86.31-71.27c24.66-30.25,38.41,21.54,78.72-52.3Z"/>
</svg>